<svg width="0" height="0" class="hidden">
  <symbol xmlns="http://www.w3.org/2000/svg" fill="none" stroke="currentColor" viewBox="0 0 24 24" id="arrow-left">
    <path stroke-linecap="round" stroke-linejoin="round" stroke-width="1.5" d="m10 19-7-7m0 0 7-7m-7 7h18"></path>
  </symbol>
  <symbol xmlns="http://www.w3.org/2000/svg" fill="none" stroke="currentColor" viewBox="0 0 24 24" id="arrow-right">
    <path stroke-linecap="round" stroke-linejoin="round" stroke-width="1.5" d="m14 5 7 7m0 0-7 7m7-7H3"></path>
  </symbol>
  <symbol xmlns="http://www.w3.org/2000/svg" fill="none" stroke="currentColor" viewBox="0 0 24 24" id="bell">
    <path stroke-linecap="round" stroke-linejoin="round" stroke-width="1.5" d="M15 17h5l-1.405-1.405A2.032 2.032 0 0 1 18 14.158V11a6.002 6.002 0 0 0-4-5.659V5a2 2 0 1 0-4 0v.341C7.67 6.165 6 8.388 6 11v3.159c0 .538-.214 1.055-.595 1.436L4 17h5m6 0v1a3 3 0 1 1-6 0v-1m6 0H9"></path>
  </symbol>
  <symbol xmlns="http://www.w3.org/2000/svg" fill="none" stroke="currentColor" viewBox="0 0 24 24" id="bookmark">
    <path stroke-linecap="round" stroke-linejoin="round" stroke-width="1.5" d="M5 5a2 2 0 0 1 2-2h10a2 2 0 0 1 2 2v16l-7-3.5L5 21V5z"></path>
  </symbol>
  <symbol xmlns="http://www.w3.org/2000/svg" fill="none" stroke="currentColor" viewBox="0 0 24 24" id="briefcase">
    <path stroke-linecap="round" stroke-linejoin="round" stroke-width="1.5" d="M21 13.255A23.931 23.931 0 0 1 12 15c-3.183 0-6.22-.62-9-1.745M16 6V4a2 2 0 0 0-2-2h-4a2 2 0 0 0-2 2v2m4 6h.01M5 20h14a2 2 0 0 0 2-2V8a2 2 0 0 0-2-2H5a2 2 0 0 0-2 2v10a2 2 0 0 0 2 2z"></path>
  </symbol>
  <symbol xmlns="http://www.w3.org/2000/svg" fill="none" stroke="currentColor" viewBox="0 0 24 24" id="chevron-double-right">
    <path stroke-linecap="round" stroke-linejoin="round" stroke-width="1.5" d="m13 5 7 7-7 7M5 5l7 7-7 7"></path>
  </symbol>
  <symbol xmlns="http://www.w3.org/2000/svg" fill="none" stroke="currentColor" viewBox="0 0 24 24" id="check">
    <path stroke-linecap="round" stroke-linejoin="round" stroke-width="1.5" d="m5 13 4 4L19 7"></path>
  </symbol>
  <symbol xmlns="http://www.w3.org/2000/svg" fill="none" stroke="currentColor" viewBox="0 0 24 24" id="clipboard-list">
    <path stroke-linecap="round" stroke-linejoin="round" stroke-width="1.5" d="M9 5H7a2 2 0 0 0-2 2v12a2 2 0 0 0 2 2h10a2 2 0 0 0 2-2V7a2 2 0 0 0-2-2h-2M9 5a2 2 0 0 0 2 2h2a2 2 0 0 0 2-2M9 5a2 2 0 0 1 2-2h2a2 2 0 0 1 2 2m-3 7h3m-3 4h3m-6-4h.01M9 16h.01"></path>
  </symbol>
  <symbol xmlns="http://www.w3.org/2000/svg" fill="none" stroke="currentColor" viewBox="0 0 24 24" id="document-add">
    <path stroke-linecap="round" stroke-linejoin="round" stroke-width="1.5" d="M9 13h6m-3-3v6m5 5H7a2 2 0 0 1-2-2V5a2 2 0 0 1 2-2h5.586a1 1 0 0 1 .707.293l5.414 5.414a1 1 0 0 1 .293.707V19a2 2 0 0 1-2 2z"></path>
  </symbol>
  <symbol xmlns="http://www.w3.org/2000/svg" fill="none" stroke="currentColor" viewBox="0 0 24 24" id="dots-horizontal">
    <path stroke-linecap="round" stroke-linejoin="round" stroke-width="1.5" d="M5 12h.01M12 12h.01M19 12h.01M6 12a1 1 0 1 1-2 0 1 1 0 0 1 2 0zm7 0a1 1 0 1 1-2 0 1 1 0 0 1 2 0zm7 0a1 1 0 1 1-2 0 1 1 0 0 1 2 0z"></path>
  </symbol>
  <symbol xmlns="http://www.w3.org/2000/svg" fill="none" stroke="currentColor" viewBox="0 0 24 24" id="dots-vertical">
    <path stroke-linecap="round" stroke-linejoin="round" stroke-width="1.5" d="M12 5v.01M12 12v.01M12 19v.01M12 6a1 1 0 1 1 0-2 1 1 0 0 1 0 2zm0 7a1 1 0 1 1 0-2 1 1 0 0 1 0 2zm0 7a1 1 0 1 1 0-2 1 1 0 0 1 0 2z"></path>
  </symbol>
  <symbol xmlns="http://www.w3.org/2000/svg" fill="none" stroke="currentColor" viewBox="0 0 24 24" id="home">
    <path stroke-linecap="round" stroke-linejoin="round" stroke-width="1.5" d="m3 12 2-2m0 0 7-7 7 7M5 10v10a1 1 0 0 0 1 1h3m10-11 2 2m-2-2v10a1 1 0 0 1-1 1h-3m-6 0a1 1 0 0 0 1-1v-4a1 1 0 0 1 1-1h2a1 1 0 0 1 1 1v4a1 1 0 0 0 1 1m-6 0h6"></path>
  </symbol>
  <symbol xmlns="http://www.w3.org/2000/svg" fill="none" stroke="currentColor" viewBox="0 0 24 24" id="minus">
    <path stroke-linecap="round" stroke-linejoin="round" stroke-width="1.5" d="M20 12H4"></path>
  </symbol>
  <symbol xmlns="http://www.w3.org/2000/svg" fill="none" stroke="currentColor" viewBox="0 0 24 24" id="paper-clip">
    <path stroke-linecap="round" stroke-linejoin="round" stroke-width="1.5" d="m15.172 7-6.586 6.586a2 2 0 1 0 2.828 2.828l6.414-6.586a4 4 0 0 0-5.656-5.656l-6.415 6.585a6 6 0 1 0 8.486 8.486L20.5 13"></path>
  </symbol>
  <symbol xmlns="http://www.w3.org/2000/svg" fill="none" stroke="currentColor" viewBox="0 0 24 24" id="pencil">
    <path stroke-linecap="round" stroke-linejoin="round" stroke-width="1.5" d="m15.232 5.232 3.536 3.536m-2.036-5.036a2.5 2.5 0 1 1 3.536 3.536L6.5 21.036H3v-3.572L16.732 3.732z"></path>
  </symbol>
  <symbol xmlns="http://www.w3.org/2000/svg" fill="none" stroke="currentColor" viewBox="0 0 24 24" id="plus">
    <path stroke-linecap="round" stroke-linejoin="round" stroke-width="1.5" d="M12 4v16m8-8H4"></path>
  </symbol>
  <symbol xmlns="http://www.w3.org/2000/svg" fill="none" stroke="currentColor" viewBox="0 0 24 24" id="refresh">
    <path stroke-linecap="round" stroke-linejoin="round" stroke-width="1.5" d="M4 4v5h.582m15.356 2A8.001 8.001 0 0 0 4.582 9m0 0H9m11 11v-5h-.581m0 0a8.003 8.003 0 0 1-15.357-2m15.357 2H15"></path>
  </symbol>
  <symbol xmlns="http://www.w3.org/2000/svg" fill="none" stroke="currentColor" viewBox="0 0 24 24" id="trash">
    <path stroke-linecap="round" stroke-linejoin="round" stroke-width="1.5" d="m19 7-.867 12.142A2 2 0 0 1 16.138 21H7.862a2 2 0 0 1-1.995-1.858L5 7m5 4v6m4-6v6m1-10V4a1 1 0 0 0-1-1h-4a1 1 0 0 0-1 1v3M4 7h16"></path>
  </symbol>
  <symbol xmlns="http://www.w3.org/2000/svg" fill="none" stroke="currentColor" viewBox="0 0 24 24" id="view-grid">
    <path stroke-linecap="round" stroke-linejoin="round" stroke-width="1.5" d="M4 6a2 2 0 0 1 2-2h2a2 2 0 0 1 2 2v2a2 2 0 0 1-2 2H6a2 2 0 0 1-2-2V6zm10 0a2 2 0 0 1 2-2h2a2 2 0 0 1 2 2v2a2 2 0 0 1-2 2h-2a2 2 0 0 1-2-2V6zM4 16a2 2 0 0 1 2-2h2a2 2 0 0 1 2 2v2a2 2 0 0 1-2 2H6a2 2 0 0 1-2-2v-2zm10 0a2 2 0 0 1 2-2h2a2 2 0 0 1 2 2v2a2 2 0 0 1-2 2h-2a2 2 0 0 1-2-2v-2z"></path>
  </symbol>
  <symbol xmlns="http://www.w3.org/2000/svg" fill="none" stroke="currentColor" viewBox="0 0 24 24" id="x">
    <path stroke-linecap="round" stroke-linejoin="round" stroke-width="1.5" d="M6 18 18 6M6 6l12 12"></path>
  </symbol>
</svg>